<svg width="326" height="216" viewBox="0 0 326 216" fill="none" xmlns="http://www.w3.org/2000/svg">
<path d="M8.60465 0H17.2093V8.60463H8.60465V0ZM17.2093 0H25.814V8.60463H17.2093V0ZM25.814 0H34.4186V8.60463H25.814V0ZM25.814 8.60463H34.4186V17.2093H25.814V8.60463ZM17.2093 8.60463H25.814V17.2093H17.2093V8.60463ZM34.4186 0H43.0233V8.60463H34.4186V0ZM43.0233 0H51.6279V8.60463H43.0233V0ZM43.0233 8.60463H51.6279V17.2093H43.0233V8.60463ZM34.4186 8.60463H43.0233V17.2093H34.4186V8.60463ZM34.4186 17.2093H43.0233V25.8139H34.4186V17.2093ZM34.4186 25.8139H43.0233V34.4186H34.4186V25.8139ZM43.0233 25.8139H51.6279V34.4186H43.0233V25.8139ZM43.0233 17.2093H51.6279V25.8139H43.0233V17.2093ZM51.6279 0H60.2326V8.60463H51.6279V0ZM60.2326 0H68.8372V8.60463H60.2326V0ZM60.2326 8.60463H68.8372V17.2093H60.2326V8.60463ZM60.2326 17.2093H68.8372V25.8139H60.2326V17.2093ZM60.2326 25.8139H68.8372V34.4186H60.2326V25.8139ZM51.6279 25.8139H60.2326V34.4186H51.6279V25.8139ZM51.6279 17.2093H60.2326V25.8139H51.6279V17.2093ZM51.6279 8.60463H60.2326V17.2093H51.6279V8.60463ZM68.8372 0H77.4419V8.60463H68.8372V0ZM77.4419 0H86.0465V8.60463H77.4419V0ZM77.4419 8.60463H86.0465V17.2093H77.4419V8.60463ZM77.4419 17.2093H86.0465V25.8139H77.4419V17.2093ZM77.4419 25.8139H86.0465V34.4186H77.4419V25.8139ZM68.8372 25.8139H77.4419V34.4186H68.8372V25.8139ZM68.8372 17.2093H77.4419V25.8139H68.8372V17.2093ZM68.8372 8.60463H77.4419V17.2093H68.8372V8.60463ZM86.0465 8.60463H94.6512V17.2093H86.0465V8.60463ZM86.0465 0H94.6512V8.60463H86.0465V0ZM94.6512 0H103.256V8.60463H94.6512V0ZM94.6512 8.60463H103.256V17.2093H94.6512V8.60463ZM94.6512 17.2093H103.256V25.8139H94.6512V17.2093ZM86.0465 17.2093H94.6512V25.8139H86.0465V17.2093ZM86.0465 25.8139H94.6512V34.4186H86.0465V25.8139ZM94.6512 25.8139H103.256V34.4186H94.6512V25.8139ZM94.6512 34.4186H103.256V43.0233H94.6512V34.4186ZM94.6512 43.0233H103.256V51.6279H94.6512V43.0233ZM86.0465 43.0233H94.6512V51.6279H86.0465V43.0233ZM86.0465 34.4186H94.6512V43.0233H86.0465V34.4186ZM86.0465 51.6279H94.6512V60.2326H86.0465V51.6279ZM94.6512 51.6279H103.256V60.2326H94.6512V51.6279ZM94.6512 60.2326H103.256V68.8372H94.6512V60.2326ZM86.0465 60.2326H94.6512V68.8372H86.0465V60.2326ZM60.2326 51.6279H68.8372V60.2326H60.2326V51.6279ZM51.6279 51.6279H60.2326V60.2326H51.6279V51.6279ZM51.6279 60.2326H60.2326V68.8372H51.6279V60.2326ZM60.2326 60.2326H68.8372V68.8372H60.2326V60.2326ZM43.0233 51.6279H51.6279V60.2326H43.0233V51.6279ZM34.4186 51.6279H43.0233V60.2326H34.4186V51.6279ZM34.4186 60.2326H43.0233V68.8372H34.4186V60.2326ZM43.0233 60.2326H51.6279V68.8372H43.0233V60.2326ZM60.2326 68.8372H68.8372V77.4419H60.2326V68.8372ZM60.2326 77.4419H68.8372V86.0465H60.2326V77.4419ZM60.2326 86.0465H68.8372V94.6512H60.2326V86.0465ZM51.6279 86.0465H60.2326V94.6512H51.6279V86.0465ZM43.0233 86.0465H51.6279V94.6512H43.0233V86.0465ZM43.0233 77.4419H51.6279V86.0465H43.0233V77.4419ZM34.4186 77.4419H43.0233V86.0465H34.4186V77.4419ZM34.4186 68.8372H43.0233V77.4419H34.4186V68.8372ZM43.0233 68.8372H51.6279V77.4419H43.0233V68.8372ZM51.6279 68.8372H60.2326V77.4419H51.6279V68.8372ZM51.6279 77.4419H60.2326V86.0465H51.6279V77.4419ZM25.814 77.4419H34.4186V86.0465H25.814V77.4419ZM17.2093 77.4419H25.814V86.0465H17.2093V77.4419ZM17.2093 68.8372H25.814V77.4419H17.2093V68.8372ZM25.814 68.8372H34.4186V77.4419H25.814V68.8372ZM8.60465 77.4419H17.2093V86.0465H8.60465V77.4419ZM8.60465 68.8372H17.2093V77.4419H8.60465V68.8372ZM43.0233 94.6512H51.6279V103.256H43.0233V94.6512ZM51.6279 94.6512H60.2326V103.256H51.6279V94.6512ZM60.2326 94.6512H68.8372V103.256H60.2326V94.6512ZM34.4186 94.6512H43.0233V103.256H34.4186V94.6512ZM34.4186 86.0465H43.0233V94.6512H34.4186V86.0465ZM8.60465 103.256H17.2093V111.86H8.60465V103.256ZM17.2093 103.256H25.814V111.86H17.2093V103.256ZM25.814 103.256H34.4186V111.86H25.814V103.256ZM25.814 111.86H34.4186V120.465H25.814V111.86ZM17.2093 111.86H25.814V120.465H17.2093V111.86ZM8.60465 111.86H17.2093V120.465H8.60465V111.86ZM34.4186 103.256H43.0233V111.86H34.4186V103.256ZM34.4186 111.86H43.0233V120.465H34.4186V111.86ZM43.0233 111.86H51.6279V120.465H43.0233V111.86ZM51.6279 111.86H60.2326V120.465H51.6279V111.86ZM60.2326 111.86H68.8372V120.465H60.2326V111.86ZM60.2326 103.256H68.8372V111.86H60.2326V103.256ZM51.6279 103.256H60.2326V111.86H51.6279V103.256ZM43.0233 103.256H51.6279V111.86H43.0233V103.256ZM34.4186 120.465H43.0233V129.07H34.4186V120.465ZM43.0233 120.465H51.6279V129.07H43.0233V120.465ZM51.6279 120.465H60.2326V129.07H51.6279V120.465ZM60.2326 120.465H68.8372V129.07H60.2326V120.465ZM60.2326 129.07H68.8372V137.674H60.2326V129.07ZM51.6279 129.07H60.2326V137.674H51.6279V129.07ZM43.0233 129.07H51.6279V137.674H43.0233V129.07ZM34.4186 129.07H43.0233V137.674H34.4186V129.07ZM34.4186 137.674H43.0233V146.279H34.4186V137.674ZM43.0233 137.674H51.6279V146.279H43.0233V137.674ZM51.6279 137.674H60.2326V146.279H51.6279V137.674ZM60.2326 137.674H68.8372V146.279H60.2326V137.674ZM60.2326 146.279H68.8372V154.884H60.2326V146.279ZM51.6279 146.279H60.2326V154.884H51.6279V146.279ZM43.0233 146.279H51.6279V154.884H43.0233V146.279ZM34.4186 146.279H43.0233V154.884H34.4186V146.279ZM34.4186 180.698H43.0233V189.302H34.4186V180.698ZM43.0233 180.698H51.6279V189.302H43.0233V180.698ZM51.6279 180.698H60.2326V189.302H51.6279V180.698ZM60.2326 180.698H68.8372V189.302H60.2326V180.698ZM60.2326 189.302H68.8372V197.907H60.2326V189.302ZM51.6279 189.302H60.2326V197.907H51.6279V189.302ZM43.0233 189.302H51.6279V197.907H43.0233V189.302ZM34.4186 189.302H43.0233V197.907H34.4186V189.302ZM17.2093 197.907H25.814V206.512H17.2093V197.907ZM68.8372 180.698H77.4419V189.302H68.8372V180.698ZM77.4419 180.698H86.0465V189.302H77.4419V180.698ZM77.4419 189.302H86.0465V197.907H77.4419V189.302ZM77.4419 197.907H86.0465V206.512H77.4419V197.907ZM77.4419 206.512H86.0465V215.116H77.4419V206.512ZM68.8372 206.512H77.4419V215.116H68.8372V206.512ZM68.8372 197.907H77.4419V206.512H68.8372V197.907ZM68.8372 189.302H77.4419V197.907H68.8372V189.302ZM86.0465 180.698H94.6512V189.302H86.0465V180.698ZM94.6512 180.698H103.256V189.302H94.6512V180.698ZM94.6512 189.302H103.256V197.907H94.6512V189.302ZM94.6512 197.907H103.256V206.512H94.6512V197.907ZM94.6512 206.512H103.256V215.116H94.6512V206.512ZM86.0465 206.512H94.6512V215.116H86.0465V206.512ZM86.0465 197.907H94.6512V206.512H86.0465V197.907ZM86.0465 189.302H94.6512V197.907H86.0465V189.302ZM103.256 180.698H111.86V189.302H103.256V180.698ZM111.86 180.698H120.465V189.302H111.86V180.698ZM111.86 189.302H120.465V197.907H111.86V189.302ZM111.86 197.907H120.465V206.512H111.86V197.907ZM111.86 206.512H120.465V215.116H111.86V206.512ZM103.256 206.512H111.86V215.116H103.256V206.512ZM103.256 197.907H111.86V206.512H103.256V197.907ZM103.256 189.302H111.86V197.907H103.256V189.302ZM120.465 180.698H129.07V189.302H120.465V180.698ZM129.07 180.698H137.674V189.302H129.07V180.698ZM129.07 189.302H137.674V197.907H129.07V189.302ZM129.07 197.907H137.674V206.512H129.07V197.907ZM120.465 206.512H129.07V215.116H120.465V206.512ZM120.465 197.907H129.07V206.512H120.465V197.907ZM120.465 189.302H129.07V197.907H120.465V189.302ZM137.674 180.698H146.279V189.302H137.674V180.698ZM146.279 180.698H154.884V189.302H146.279V180.698ZM137.674 189.302H146.279V197.907H137.674V189.302ZM154.884 154.884H163.488V163.488H154.884V154.884ZM163.488 154.884H172.093V163.488H163.488V154.884ZM154.884 146.279H163.488V154.884H154.884V146.279ZM154.884 137.674H163.488V146.279H154.884V137.674ZM163.488 137.674H172.093V146.279H163.488V137.674ZM172.093 137.674H180.698V146.279H172.093V137.674ZM180.698 137.674H189.302V146.279H180.698V137.674ZM172.093 146.279H180.698V154.884H172.093V146.279ZM163.488 146.279H172.093V154.884H163.488V146.279ZM86.0465 68.8372H94.6512V77.4419H86.0465V68.8372ZM86.0465 77.4419H94.6512V86.0465H86.0465V77.4419ZM86.0465 86.0465H94.6512V94.6512H86.0465V86.0465ZM86.0465 94.6512H94.6512V103.256H86.0465V94.6512ZM86.0465 103.256H94.6512V111.86H86.0465V103.256ZM86.0465 111.86H94.6512V120.465H86.0465V111.86ZM86.0465 120.465H94.6512V129.07H86.0465V120.465ZM86.0465 129.07H94.6512V137.674H86.0465V129.07ZM86.0465 137.674H94.6512V146.279H86.0465V137.674ZM86.0465 146.279H94.6512V154.884H86.0465V146.279ZM94.6512 146.279H103.256V154.884H94.6512V146.279ZM94.6512 137.674H103.256V146.279H94.6512V137.674ZM94.6512 129.07H103.256V137.674H94.6512V129.07ZM94.6512 77.4419H103.256V86.0465H94.6512V77.4419ZM94.6512 68.8372H103.256V77.4419H94.6512V68.8372ZM94.6512 86.0465H103.256V94.6512H94.6512V86.0465ZM94.6512 94.6512H103.256V103.256H94.6512V94.6512ZM94.6512 103.256H103.256V111.86H94.6512V103.256ZM94.6512 111.86H103.256V120.465H94.6512V111.86ZM94.6512 120.465H103.256V129.07H94.6512V120.465ZM154.884 129.07H163.488V137.674H154.884V129.07ZM154.884 120.465H163.488V129.07H154.884V120.465ZM154.884 111.86H163.488V120.465H154.884V111.86ZM154.884 103.256H163.488V111.86H154.884V103.256ZM154.884 94.6512H163.488V103.256H154.884V94.6512ZM154.884 43.0233H163.488V51.6279H154.884V43.0233ZM154.884 34.4186H163.488V43.0233H154.884V34.4186ZM154.884 51.6279H163.488V60.2326H154.884V51.6279ZM154.884 60.2326H163.488V68.8372H154.884V60.2326ZM154.884 68.8372H163.488V77.4419H154.884V68.8372ZM154.884 77.4419H163.488V86.0465H154.884V77.4419ZM154.884 86.0465H163.488V94.6512H154.884V86.0465ZM163.488 68.8372H172.093V77.4419H163.488V68.8372ZM163.488 60.2326H172.093V68.8372H163.488V60.2326ZM163.488 51.6279H172.093V60.2326H163.488V51.6279ZM163.488 43.0233H172.093V51.6279H163.488V43.0233ZM163.488 34.4186H172.093V43.0233H163.488V34.4186ZM172.093 68.8372H180.698V77.4419H172.093V68.8372ZM172.093 77.4419H180.698V86.0465H172.093V77.4419ZM172.093 86.0465H180.698V94.6512H172.093V86.0465ZM172.093 94.6512H180.698V103.256H172.093V94.6512ZM172.093 103.256H180.698V111.86H172.093V103.256ZM172.093 111.86H180.698V120.465H172.093V111.86ZM163.488 111.86H172.093V120.465H163.488V111.86ZM163.488 120.465H172.093V129.07H163.488V120.465ZM163.488 103.256H172.093V111.86H163.488V103.256ZM163.488 94.6512H172.093V103.256H163.488V94.6512ZM163.488 86.0465H172.093V94.6512H163.488V86.0465ZM163.488 77.4419H172.093V86.0465H163.488V77.4419ZM172.093 34.4186H180.698V43.0233H172.093V34.4186ZM180.698 34.4186H189.302V43.0233H180.698V34.4186ZM180.698 43.0233H189.302V51.6279H180.698V43.0233ZM180.698 51.6279H189.302V60.2326H180.698V51.6279ZM180.698 60.2326H189.302V68.8372H180.698V60.2326ZM180.698 68.8372H189.302V77.4419H180.698V68.8372ZM180.698 77.4419H189.302V86.0465H180.698V77.4419ZM180.698 94.6512H189.302V103.256H180.698V94.6512ZM180.698 103.256H189.302V111.86H180.698V103.256ZM180.698 111.86H189.302V120.465H180.698V111.86ZM180.698 86.0465H189.302V94.6512H180.698V86.0465ZM180.698 120.465H189.302V129.07H180.698V120.465ZM180.698 129.07H189.302V137.674H180.698V129.07ZM172.093 129.07H180.698V137.674H172.093V129.07ZM172.093 120.465H180.698V129.07H172.093V120.465ZM163.488 129.07H172.093V137.674H163.488V129.07ZM172.093 60.2326H180.698V68.8372H172.093V60.2326ZM172.093 51.6279H180.698V60.2326H172.093V51.6279ZM172.093 43.0233H180.698V51.6279H172.093V43.0233ZM103.256 0H111.86V8.60463H103.256V0ZM111.86 0H120.465V8.60463H111.86V0ZM120.465 0H129.07V8.60463H120.465V0ZM129.07 0H137.674V8.60463H129.07V0ZM137.674 0H146.279V8.60463H137.674V0ZM146.279 0H154.884V8.60463H146.279V0ZM146.279 8.60463H154.884V17.2093H146.279V8.60463ZM146.279 25.8139H154.884V34.4186H146.279V25.8139ZM137.674 25.8139H146.279V34.4186H137.674V25.8139ZM129.07 17.2093H137.674V25.8139H129.07V17.2093ZM120.465 17.2093H129.07V25.8139H120.465V17.2093ZM111.86 17.2093H120.465V25.8139H111.86V17.2093ZM103.256 17.2093H111.86V25.8139H103.256V17.2093ZM103.256 25.8139H111.86V34.4186H103.256V25.8139ZM111.86 25.8139H120.465V34.4186H111.86V25.8139ZM120.465 25.8139H129.07V34.4186H120.465V25.8139ZM129.07 25.8139H137.674V34.4186H129.07V25.8139ZM146.279 17.2093H154.884V25.8139H146.279V17.2093ZM137.674 17.2093H146.279V25.8139H137.674V17.2093ZM137.674 8.60463H146.279V17.2093H137.674V8.60463ZM129.07 8.60463H137.674V17.2093H129.07V8.60463ZM120.465 8.60463H129.07V17.2093H120.465V8.60463ZM111.86 8.60463H120.465V17.2093H111.86V8.60463ZM103.256 8.60463H111.86V17.2093H103.256V8.60463ZM154.884 17.2093H163.488V25.8139H154.884V17.2093ZM163.488 17.2093H172.093V25.8139H163.488V17.2093ZM163.488 25.8139H172.093V34.4186H163.488V25.8139ZM154.884 25.8139H163.488V34.4186H154.884V25.8139ZM154.884 0H163.488V8.60463H154.884V0ZM163.488 8.60463H172.093V17.2093H163.488V8.60463ZM154.884 8.60463H163.488V17.2093H154.884V8.60463ZM172.093 17.2093H180.698V25.8139H172.093V17.2093ZM180.698 25.8139H189.302V34.4186H180.698V25.8139ZM172.093 25.8139H180.698V34.4186H172.093V25.8139ZM25.814 189.302H34.4186V197.907H25.814V189.302ZM146.279 34.4186H154.884V43.0233H146.279V34.4186ZM25.814 17.2093H34.4186V25.8139H25.814V17.2093ZM0 68.8372H8.60465V77.4419H0V68.8372ZM0 77.4419H8.60465V86.0465H0V77.4419ZM0 103.256H8.60465V111.86H0V103.256ZM0 111.86H8.60465V120.465H0V111.86ZM0 0H8.60465V8.60463H0V0ZM8.60465 8.60463H17.2093V17.2093H8.60465V8.60463ZM17.2093 17.2093H25.814V25.8139H17.2093V17.2093ZM25.814 25.8139H34.4186V34.4186H25.814V25.8139ZM8.60465 206.512H17.2093V215.116H8.60465V206.512ZM8.60465 197.907H17.2093V206.512H8.60465V197.907ZM17.2093 189.302H25.814V197.907H17.2093V189.302ZM25.814 180.698H34.4186V189.302H25.814V180.698ZM60.2326 197.907H68.8372V206.512H60.2326V197.907ZM154.884 163.488H163.488V172.093H154.884V163.488ZM146.279 172.093H154.884V180.698H146.279V172.093ZM154.884 172.093H163.488V180.698H154.884V172.093ZM163.488 163.488H172.093V172.093H163.488V163.488ZM172.093 154.884H180.698V163.488H172.093V154.884ZM180.698 146.279H189.302V154.884H180.698V146.279ZM34.4186 154.884H43.0233V163.488H34.4186V154.884ZM43.0233 154.884H51.6279V163.488H43.0233V154.884ZM51.6279 154.884H60.2326V163.488H51.6279V154.884ZM60.2326 154.884H68.8372V163.488H60.2326V154.884ZM86.0465 154.884H94.6512V163.488H86.0465V154.884ZM94.6512 154.884H103.256V163.488H94.6512V154.884Z" fill="#FF5555"/>
<path d="M265.622 51.6279H274.226V60.2326H265.622V51.6279ZM248.412 68.8372H257.017V77.4419H248.412V68.8372ZM257.017 60.2326H265.622V68.8372H257.017V60.2326ZM265.622 60.2326H274.226V68.8372H265.622V60.2326ZM265.622 68.8372H274.226V77.4419H265.622V68.8372ZM257.017 68.8372H265.622V77.4419H257.017V68.8372ZM239.808 77.4419H248.412V86.0465H239.808V77.4419ZM239.808 86.0465H248.412V94.6512H239.808V86.0465ZM239.808 94.6512H248.412V103.256H239.808V94.6512ZM248.412 94.6512H257.017V103.256H248.412V94.6512ZM248.412 103.256H257.017V111.86H248.412V103.256ZM265.622 103.256H274.226V111.86H265.622V103.256ZM265.622 86.0465H274.226V94.6512H265.622V86.0465ZM265.622 77.4419H274.226V86.0465H265.622V77.4419ZM257.017 77.4419H265.622V86.0465H257.017V77.4419ZM248.412 77.4419H257.017V86.0465H248.412V77.4419ZM248.412 86.0465H257.017V94.6512H248.412V86.0465ZM257.017 94.6512H265.622V103.256H257.017V94.6512ZM265.622 94.6512H274.226V103.256H265.622V94.6512ZM257.017 86.0465H265.622V94.6512H257.017V86.0465ZM239.808 180.698H248.412V189.302H239.808V180.698ZM239.808 172.093H248.412V180.698H239.808V172.093ZM248.412 172.093H257.017V180.698H248.412V172.093ZM239.808 163.488H248.412V172.093H239.808V163.488ZM239.808 154.884H248.412V163.488H239.808V154.884ZM239.808 146.279H248.412V154.884H239.808V146.279ZM239.808 120.465H248.412V129.07H239.808V120.465ZM239.808 111.86H248.412V120.465H239.808V111.86ZM239.808 103.256H248.412V111.86H239.808V103.256ZM248.412 111.86H257.017V120.465H248.412V111.86ZM257.017 129.07H265.622V137.674H257.017V129.07ZM248.412 137.674H257.017V146.279H248.412V137.674ZM248.412 146.279H257.017V154.884H248.412V146.279ZM248.412 154.884H257.017V163.488H248.412V154.884ZM248.412 163.488H257.017V172.093H248.412V163.488ZM257.017 163.488H265.622V172.093H257.017V163.488ZM257.017 154.884H265.622V163.488H257.017V154.884ZM265.622 154.884H274.226V163.488H265.622V154.884ZM265.622 146.279H274.226V154.884H265.622V146.279ZM265.622 137.674H274.226V146.279H265.622V137.674ZM265.622 129.07H274.226V137.674H265.622V129.07ZM265.622 120.465H274.226V129.07H265.622V120.465ZM265.622 111.86H274.226V120.465H265.622V111.86ZM257.017 146.279H265.622V154.884H257.017V146.279ZM257.017 137.674H265.622V146.279H257.017V137.674ZM239.808 137.674H248.412V146.279H239.808V137.674ZM239.808 129.07H248.412V137.674H239.808V129.07ZM248.412 120.465H257.017V129.07H248.412V120.465ZM248.412 129.07H257.017V137.674H248.412V129.07ZM257.017 120.465H265.622V129.07H257.017V120.465ZM257.017 111.86H265.622V120.465H257.017V111.86ZM257.017 103.256H265.622V111.86H257.017V103.256ZM231.203 103.256H239.808V111.86H231.203V103.256ZM231.203 111.86H239.808V120.465H231.203V111.86ZM222.598 111.86H231.203V120.465H222.598V111.86ZM231.203 120.465H239.808V129.07H231.203V120.465ZM231.203 129.07H239.808V137.674H231.203V129.07ZM222.598 129.07H231.203V137.674H222.598V129.07ZM222.598 120.465H231.203V129.07H222.598V120.465ZM222.598 103.256H231.203V111.86H222.598V103.256ZM213.994 103.256H222.598V111.86H213.994V103.256ZM213.994 111.86H222.598V120.465H213.994V111.86ZM213.994 120.465H222.598V129.07H213.994V120.465ZM213.994 129.07H222.598V137.674H213.994V129.07ZM274.226 120.465H282.831V129.07H274.226V120.465ZM274.226 129.07H282.831V137.674H274.226V129.07ZM282.831 129.07H291.435V137.674H282.831V129.07ZM282.831 120.465H291.435V129.07H282.831V120.465ZM282.831 111.86H291.435V120.465H282.831V111.86ZM282.831 103.256H291.435V111.86H282.831V103.256ZM274.226 103.256H282.831V111.86H274.226V103.256ZM274.226 111.86H282.831V120.465H274.226V111.86ZM205.389 111.86H213.994V120.465H205.389V111.86ZM196.784 120.465H205.389V129.07H196.784V120.465ZM188.18 129.07H196.784V137.674H188.18V129.07ZM196.784 129.07H205.389V137.674H196.784V129.07ZM205.389 129.07H213.994V137.674H205.389V129.07ZM205.389 120.465H213.994V129.07H205.389V120.465ZM291.435 120.465H300.04V129.07H291.435V120.465ZM291.435 129.07H300.04V137.674H291.435V129.07ZM300.04 120.465H308.645V129.07H300.04V120.465ZM308.645 111.86H317.249V120.465H308.645V111.86ZM317.249 103.256H325.854V111.86H317.249V103.256ZM308.645 103.256H317.249V111.86H308.645V103.256ZM300.04 103.256H308.645V111.86H300.04V103.256ZM291.435 103.256H300.04V111.86H291.435V103.256ZM300.04 111.86H308.645V120.465H300.04V111.86ZM291.435 111.86H300.04V120.465H291.435V111.86Z" fill="#AA0000"/>
</svg>
