<svg viewBox="0 0 128 128" fill="none" xmlns="http://www.w3.org/2000/svg">
<path fill-rule="evenodd" clip-rule="evenodd" d="M2.03148 80.0589L37.4741 44.6163L41.6353 48.7774L4.02493 86.3878C3.25512 84.3264 2.58854 82.2147 2.03148 80.0589ZM0.113019 67.8352C0.0380269 66.5664 0 65.2877 0 64C0 48.1448 5.76551 33.6363 15.3144 22.4565L30.4031 37.5452L0.113019 67.8352ZM30.5616 9.41946L44.5452 23.4031L67.8352 0.113019C66.5664 0.0380269 65.2877 0 64 0C51.7441 0 40.2928 3.44499 30.5616 9.41946ZM80.0589 2.03147L51.6163 30.4741L55.7774 34.6353L86.3878 4.02493C84.3264 3.25512 82.2147 2.58853 80.0589 2.03147ZM100.325 11.3006L66.384 45.2419L118.581 97.4384C124.555 87.7072 128 76.2559 128 64C128 42.144 117.044 22.8469 100.325 11.3006ZM105.544 112.686L52.2419 59.384L11.3006 100.325C22.8469 117.044 42.144 128 64 128C79.8552 128 94.3637 122.234 105.544 112.686Z" fill="#274AFA"/>
</svg>